<?xml version="1.0" encoding="UTF-8" standalone="no"?>
<!DOCTYPE svg PUBLIC "-//W3C//DTD SVG 1.1//EN" "http://www.w3.org/Graphics/SVG/1.1/DTD/svg11.dtd">
<svg width="100%" height="100%" viewBox="0 0 1000 1000" version="1.1" xmlns="http://www.w3.org/2000/svg" xmlns:xlink="http://www.w3.org/1999/xlink" xml:space="preserve" xmlns:serif="http://www.serif.com/" style="fill-rule:evenodd;clip-rule:evenodd;stroke-linejoin:round;stroke-miterlimit:2;">
    <g transform="matrix(1.60233,0,0,1.60233,-471.378,-249.089)">
        <g transform="matrix(1.06192,0,0,1.26374,160.717,136.132)">
            <path d="M319.5,136C319.5,136 344.429,229.24 371.345,259.574C398.262,289.907 481,318 481,318C481,318 398.262,346.093 371.345,376.426C344.429,406.76 319.5,500 319.5,500C319.5,500 294.571,406.76 267.655,376.426C240.738,346.093 158,318 158,318C158,318 240.738,289.907 267.655,259.574C294.571,229.24 319.5,136 319.5,136Z" style="fill:white;"/>
        </g>
        <g transform="matrix(0.63164,0,0,0.751683,580.138,162.159)">
            <path d="M319.5,136C319.5,136 344.429,229.24 371.345,259.574C398.262,289.907 481,318 481,318C481,318 398.262,346.093 371.345,376.426C344.429,406.76 319.5,500 319.5,500C319.5,500 294.571,406.76 267.655,376.426C240.738,346.093 158,318 158,318C158,318 240.738,289.907 267.655,259.574C294.571,229.24 319.5,136 319.5,136Z" style="fill:white;"/>
        </g>
        <g transform="matrix(0.363996,0,0,0.433173,563.641,108.088)">
            <path d="M319.5,136C319.5,136 344.429,229.24 371.345,259.574C398.262,289.907 481,318 481,318C481,318 398.262,346.093 371.345,376.426C344.429,406.76 319.5,500 319.5,500C319.5,500 294.571,406.76 267.655,376.426C240.738,346.093 158,318 158,318C158,318 240.738,289.907 267.655,259.574C294.571,229.24 319.5,136 319.5,136Z" style="fill:white;"/>
        </g>
    </g>
</svg>
