<?xml version="1.0" encoding="UTF-8" standalone="no"?>
<!DOCTYPE svg PUBLIC "-//W3C//DTD SVG 1.1//EN" "http://www.w3.org/Graphics/SVG/1.1/DTD/svg11.dtd">
<svg width="100%" height="100%" viewBox="0 0 1000 1000" version="1.1" xmlns="http://www.w3.org/2000/svg" xmlns:xlink="http://www.w3.org/1999/xlink" xml:space="preserve" xmlns:serif="http://www.serif.com/" style="fill-rule:evenodd;clip-rule:evenodd;stroke-linecap:round;stroke-linejoin:bevel;stroke-miterlimit:1.5;">
    <g transform="matrix(1.30486,-0.145911,0.145985,1.30552,-199.303,-122.499)">
        <g transform="matrix(0.945747,2.69235e-17,-2.69235e-17,0.945747,17.9289,28.3717)">
            <rect x="150" y="433" width="670" height="195" style="stroke:black;stroke-width:88.14px;"/>
        </g>
        <g transform="matrix(1.64387,2.07318e-17,-1.38778e-17,1.1004,-161.549,-62.8446)">
            <path d="M289.474,496.133L256.002,501.442C254.322,497.183 252.793,494.243 251.413,492.624C250.093,490.944 247.874,489.264 244.755,487.585L244.755,513.589C262.99,518.448 275.168,523.577 281.286,528.975C289.384,536.234 293.434,545.442 293.434,556.599C293.434,563.138 291.964,569.136 289.025,574.595C286.145,580.054 282.426,584.613 277.867,588.272C273.368,591.931 268.569,594.601 263.47,596.28C258.372,597.9 252.133,598.86 244.755,599.16L244.755,616.166L231.618,616.166L231.618,599.16C222.8,598.38 215.631,596.97 210.112,594.93C204.654,592.831 199.915,589.952 195.896,586.292C191.937,582.633 188.877,578.704 186.718,574.505C184.558,570.246 182.939,565.117 181.859,559.119L218.211,554.89C219.29,560.828 220.73,565.117 222.53,567.757C224.389,570.396 227.419,572.736 231.618,574.775L231.618,543.012C219.5,539.653 210.892,536.744 205.793,534.284C200.755,531.825 196.376,527.896 192.656,522.497C188.937,517.038 187.078,510.41 187.078,502.611C187.078,491.934 190.797,483.026 198.235,475.888C205.733,468.689 216.861,464.7 231.618,463.92L231.618,455.012L244.755,455.012L244.755,463.92C258.192,464.76 268.449,467.939 275.528,473.458C282.666,478.977 287.315,486.535 289.474,496.133ZM231.618,487.135C227.778,488.395 225.109,489.954 223.609,491.814C222.11,493.673 221.36,495.863 221.36,498.382C221.36,501.022 222.11,503.331 223.609,505.311C225.169,507.23 227.838,508.85 231.618,510.17L231.618,487.135ZM244.755,575.675C249.853,574.535 253.573,572.676 255.912,570.096C258.312,567.457 259.511,564.517 259.511,561.278C259.511,558.459 258.491,555.879 256.452,553.54C254.472,551.14 250.573,548.921 244.755,546.881L244.755,575.675Z" style="fill:white;fill-rule:nonzero;"/>
            <path d="M322.677,542.652L327.356,519.888L305.311,519.888L305.311,495.053L332.305,495.053L338.693,462.84L364.337,462.84L357.769,495.053L377.474,495.053L383.953,462.84L409.507,462.84L403.209,495.053L415.536,495.053L415.536,519.888L398.17,519.888L393.581,542.652L415.536,542.652L415.536,567.487L388.632,567.487L382.243,599.16L356.599,599.16L362.898,567.487L343.282,567.487L336.804,599.16L311.339,599.16L317.908,567.487L305.311,567.487L305.311,542.652L322.677,542.652ZM348.231,542.652L367.937,542.652L372.616,519.888L353,519.888L348.231,542.652Z" style="fill:white;fill-rule:nonzero;"/>
            <path d="M432.722,465.09L471.863,465.09L471.863,495.143L464.305,555.519L440.1,555.519L432.722,495.143L432.722,465.09ZM434.072,564.697L470.603,564.697L470.603,597L434.072,597L434.072,564.697Z" style="fill:white;fill-rule:nonzero;"/>
            <path d="M494.358,516.558L528.82,516.558L528.82,481.916L557.883,481.916L557.883,516.558L592.526,516.558L592.526,545.712L557.883,545.712L557.883,580.174L528.82,580.174L528.82,545.712L494.358,545.712L494.358,516.558Z" style="fill:white;fill-rule:nonzero;"/>
        </g>
    </g>
</svg>
