<?xml version="1.0" encoding="UTF-8" standalone="no"?>
<!DOCTYPE svg PUBLIC "-//W3C//DTD SVG 1.1//EN" "http://www.w3.org/Graphics/SVG/1.1/DTD/svg11.dtd">
<svg width="100%" height="100%" viewBox="0 0 1000 1000" version="1.1" xmlns="http://www.w3.org/2000/svg" xmlns:xlink="http://www.w3.org/1999/xlink" xml:space="preserve" xmlns:serif="http://www.serif.com/" style="fill-rule:evenodd;clip-rule:evenodd;stroke-linejoin:round;stroke-miterlimit:2;fill: white;">
    <g transform="matrix(1.27668,0,0,1.27668,-138.199,-138.34)">
        <g>
            <path d="M500,819.5L500,172.5L223,258C223,258 187.564,508.411 248,626C338.673,776.824 500,819.5 500,819.5Z"/>
            <path d="M500,120.5C550.512,120.5 789.616,211.561 822.535,231C819.533,448.573 875.512,713.5 500,879.5C128.235,714.757 176.872,458.341 177.465,231C172.297,216.908 449.488,120.5 500,120.5ZM239.539,268.507C235.992,404.066 220.782,548.6 315.824,671.384C355.386,722.495 414.242,769.137 499.986,810.472C790.799,669.626 763.111,454.891 760.019,270.718C714.2,251.387 631.219,220.539 567.051,200.511C536.82,191.075 511.917,183.163 500,183.163C484.615,183.163 444.786,195.358 399.784,209.446C346.681,226.069 275.37,254.093 239.539,268.507ZM240.121,232.946C240.47,224.599 238.984,216.752 236.296,209.423C238.849,216.386 240.147,223.747 240.127,231.164C240.126,231.757 240.124,232.351 240.121,232.946Z"/>
        </g>
    </g>
</svg>
